<?xml version="1.0" encoding="UTF-8" standalone="no"?>
<svg width="16px" height="14px" viewBox="0 0 16 14" version="1.1" xmlns="http://www.w3.org/2000/svg" xmlns:xlink="http://www.w3.org/1999/xlink" xmlns:sketch="http://www.bohemiancoding.com/sketch/ns">
    <!-- Generator: Sketch 3.4.1 (15681) - http://www.bohemiancoding.com/sketch -->
    <title>heart</title>
    <desc>Created with Sketch.</desc>
    <defs></defs>
    <g id="Welcome" stroke="none" stroke-width="1" fill="none" fill-rule="evenodd" sketch:type="MSPage">
        <g id="Serve-WPB-Home" sketch:type="MSArtboardGroup" transform="translate(-306.000000, -5624.000000)" fill="#008290">
            <path d="M321.810028,5628.24405 C321.810028,5625.9001 319.904451,5624 317.553465,5624 C316.004845,5624 314.649803,5624.82471 313.905127,5626.05756 C313.160451,5624.82471 311.805183,5624 310.256563,5624 C307.905577,5624 306,5625.9001 306,5628.24405 C306,5629.46371 306.516958,5630.56254 307.343324,5631.33664 L307.342197,5631.33664 L313.436169,5637.15078 C313.547944,5637.28468 313.715606,5637.37 313.903549,5637.37 C314.077634,5637.37 314.234366,5637.2964 314.345239,5637.17884 L320.468732,5631.33664 L320.46693,5631.33664 C321.293408,5630.56265 321.810028,5629.46382 321.810028,5628.24405" id="heart" sketch:type="MSShapeGroup"></path>
        </g>
    </g>
</svg>